<?xml version="1.0" encoding="UTF-8"?><svg id="_イヤー_1" xmlns="http://www.w3.org/2000/svg" viewBox="0 0 304.28 172.56"><defs><style>.cls-1{fill:#b63184;}</style></defs><path class="cls-1" d="M56.63,41.19c4.12-1.08,8.13-2.18,12.05-3.29-3.86,1.76-7.72,3.51-11.58,5.27,6.1-.92,12.23-1.73,18.37-2.44-1.54,1.08-3.09,2.16-4.63,3.25-6.58,.51-13.14,1.14-19.67,1.89-9.57,4.36-19.14,8.71-28.71,13.07-6.36,2.85-5.7,4.5,4.94,5.15,4.98,.31,8.62,.42,11.77,.39-1.22,1.08-2.43,2.16-3.62,3.25-4.32,.04-10.59-.28-17.9-.8-27.88-1.84-15.85-5.68-9.93-7.98,10.7-3.88,21.39-7.77,32.09-11.65-3.87,.53-7.72,1.1-11.57,1.71,2.47-.72,4.94-1.44,7.41-2.17,3.6-.69,7.2-1.35,10.82-1.97,3.38-1.23,6.77-2.46,10.15-3.69Z"/><path class="cls-1" d="M154.12,64.97c3.76,21.96-24.32,20.66-50.99,14.48-30.83-7.23-47.33-15.38-35.56-24.6,12.47-9.63,33.59-17.02,50.77-18.35,18.43-1.64,32.76,10.41,35.77,28.47Zm-37.75-23.53c-15.86,.41-28.56,7.85-34.08,14.01-6.42,7.17,2.33,14.78,22.89,19.2,20.78,4.59,34.89-.36,34.37-12.28-.36-9.28-7.19-21.34-23.17-20.93Z"/><path class="cls-1" d="M272.47,149.75c-6.96-4.59-13.96-8.96-20.99-13.12-19.86-23.28-37.48-42.59-52.71-58.73-1.9,1.74-3.94,3.36-6.12,4.86,3.04,9.39,6.08,18.78,9.12,28.16-5.83-2.61-11.66-5.08-17.51-7.44-8.25-32.12-16.49-64.24-24.74-96.36,2.62-.82,5.24-1.65,7.85-2.48,7.3,22.54,14.59,45.08,21.89,67.62,.11,.03,.22,.07,.34,.1,1.38-1.88,3.38-4.29,4.85-6.19,5.43-6.74,9.32-14.91,11.7-24.92,4.35,.54,8.7,1.13,13.03,1.78-2.34,12.84-6.86,22.76-13.64,30.52,18.92,20.04,41.32,44.93,66.93,76.19Z"/><path class="cls-1" d="M227.45,25c-3.76-.12-8.8-5.33-11.94-11.93-3.04-6.38-3.2-12.13,0-12.98,3.29-.88,8.27,4.43,11.84,11.73,4.03,8.23,3.87,13.3,.12,13.18Zm76.83,147.56c-5.55-4.31-11.13-8.46-16.74-12.46-18.38-38.3-36.76-76.61-55.14-114.91,3.58,.63,7.14,1.29,10.7,1.99,20.39,41.8,40.79,83.59,61.18,125.39Z"/></svg>